<mxfile host="65bd71144e">
    <diagram id="dPSJuCqdpPLRIj-6rHPX" name="Services and Events">
        <mxGraphModel dx="1404" dy="687" grid="1" gridSize="10" guides="1" tooltips="1" connect="1" arrows="1" fold="1" page="1" pageScale="1" pageWidth="2000" pageHeight="1200" math="0" shadow="0">
            <root>
                <mxCell id="4tAnN8jbqSkkGbERE4eA-0"/>
                <mxCell id="4tAnN8jbqSkkGbERE4eA-1" parent="4tAnN8jbqSkkGbERE4eA-0"/>
                <mxCell id="ciz800winpQHYa7LlWTX-0" value="Offer Service" style="shape=umlLifeline;perimeter=lifelinePerimeter;whiteSpace=wrap;html=1;container=1;collapsible=0;recursiveResize=0;outlineConnect=0;" parent="4tAnN8jbqSkkGbERE4eA-1" vertex="1">
                    <mxGeometry x="470" y="50" width="100" height="1000" as="geometry"/>
                </mxCell>
                <mxCell id="ZhGx_7sAbn-ji2-krsBM-5" value="" style="html=1;points=[];perimeter=orthogonalPerimeter;fontColor=#FFFFFF;" parent="ciz800winpQHYa7LlWTX-0" vertex="1">
                    <mxGeometry x="45" y="230" width="10" height="40" as="geometry"/>
                </mxCell>
                <mxCell id="ZhGx_7sAbn-ji2-krsBM-7" value="" style="html=1;points=[];perimeter=orthogonalPerimeter;fontColor=#FFFFFF;" parent="ciz800winpQHYa7LlWTX-0" vertex="1">
                    <mxGeometry x="45" y="320" width="10" height="40" as="geometry"/>
                </mxCell>
                <mxCell id="ZhGx_7sAbn-ji2-krsBM-15" value="" style="html=1;points=[];perimeter=orthogonalPerimeter;fontColor=#FFFFFF;" parent="ciz800winpQHYa7LlWTX-0" vertex="1">
                    <mxGeometry x="45" y="397" width="10" height="113" as="geometry"/>
                </mxCell>
                <mxCell id="ZhGx_7sAbn-ji2-krsBM-25" value="" style="html=1;points=[];perimeter=orthogonalPerimeter;fontColor=#FFFFFF;" parent="ciz800winpQHYa7LlWTX-0" vertex="1">
                    <mxGeometry x="45" y="649" width="10" height="60" as="geometry"/>
                </mxCell>
                <mxCell id="ZhGx_7sAbn-ji2-krsBM-29" value="" style="html=1;points=[];perimeter=orthogonalPerimeter;fontColor=#FFFFFF;" parent="ciz800winpQHYa7LlWTX-0" vertex="1">
                    <mxGeometry x="43" y="740" width="10" height="77" as="geometry"/>
                </mxCell>
                <mxCell id="ZhGx_7sAbn-ji2-krsBM-35" value="" style="html=1;points=[];perimeter=orthogonalPerimeter;fontColor=#FFFFFF;" parent="ciz800winpQHYa7LlWTX-0" vertex="1">
                    <mxGeometry x="43" y="847" width="10" height="77" as="geometry"/>
                </mxCell>
                <mxCell id="ciz800winpQHYa7LlWTX-10" value="Manager Signoff Workflow (LApp)" style="shape=umlLifeline;perimeter=lifelinePerimeter;whiteSpace=wrap;html=1;container=1;collapsible=0;recursiveResize=0;outlineConnect=0;" parent="4tAnN8jbqSkkGbERE4eA-1" vertex="1">
                    <mxGeometry x="611" y="50" width="100" height="990" as="geometry"/>
                </mxCell>
                <mxCell id="ZhGx_7sAbn-ji2-krsBM-6" value="" style="html=1;points=[];perimeter=orthogonalPerimeter;fontColor=#FFFFFF;" parent="ciz800winpQHYa7LlWTX-10" vertex="1">
                    <mxGeometry x="45" y="240" width="10" height="170" as="geometry"/>
                </mxCell>
                <mxCell id="ZhGx_7sAbn-ji2-krsBM-10" value="Put/ Manager Offer&lt;br&gt;Approval" style="html=1;verticalAlign=bottom;startArrow=oval;startFill=1;endArrow=block;startSize=8;fontColor=#FFFFFF;strokeColor=#FFFFFF;strokeWidth=2;" parent="ciz800winpQHYa7LlWTX-10" edge="1">
                    <mxGeometry width="60" relative="1" as="geometry">
                        <mxPoint x="45" y="400" as="sourcePoint"/>
                        <mxPoint x="-91" y="400" as="targetPoint"/>
                    </mxGeometry>
                </mxCell>
                <mxCell id="ZhGx_7sAbn-ji2-krsBM-19" value="" style="html=1;points=[];perimeter=orthogonalPerimeter;fontColor=#FFFFFF;" parent="ciz800winpQHYa7LlWTX-10" vertex="1">
                    <mxGeometry x="315" y="477" width="10" height="170" as="geometry"/>
                </mxCell>
                <mxCell id="ciz800winpQHYa7LlWTX-15" value="Manager" style="shape=umlLifeline;participant=umlActor;perimeter=lifelinePerimeter;whiteSpace=wrap;html=1;container=1;collapsible=0;recursiveResize=0;verticalAlign=top;spacingTop=36;outlineConnect=0;labelBackgroundColor=default;fontColor=#99FFFF;" parent="4tAnN8jbqSkkGbERE4eA-1" vertex="1">
                    <mxGeometry x="775" y="50" width="20" height="990" as="geometry"/>
                </mxCell>
                <mxCell id="ciz800winpQHYa7LlWTX-16" value="Competition Service" style="shape=umlLifeline;perimeter=lifelinePerimeter;whiteSpace=wrap;html=1;container=1;collapsible=0;recursiveResize=0;outlineConnect=0;" parent="4tAnN8jbqSkkGbERE4eA-1" vertex="1">
                    <mxGeometry x="329" y="50" width="100" height="990" as="geometry"/>
                </mxCell>
                <mxCell id="ciz800winpQHYa7LlWTX-18" value="" style="shape=umlLifeline;perimeter=lifelinePerimeter;whiteSpace=wrap;html=1;container=1;collapsible=0;recursiveResize=0;outlineConnect=0;labelBackgroundColor=default;fontColor=#FFFFFF;" parent="4tAnN8jbqSkkGbERE4eA-1" vertex="1">
                    <mxGeometry x="1015" y="50" width="100" height="990" as="geometry"/>
                </mxCell>
                <mxCell id="ciz800winpQHYa7LlWTX-19" value="" style="dashed=0;outlineConnect=0;html=1;align=center;labelPosition=center;verticalLabelPosition=bottom;verticalAlign=top;shape=mxgraph.weblogos.onedrive;fillColor=#094AB1;strokeColor=none;labelBackgroundColor=default;fontColor=#FFFFFF;" parent="ciz800winpQHYa7LlWTX-18" vertex="1">
                    <mxGeometry x="22.8" y="3" width="54.39" height="33" as="geometry"/>
                </mxCell>
                <mxCell id="W0tWSwDXoUZTlSm5Tcsa-0" value="HR" style="shape=umlLifeline;participant=umlActor;perimeter=lifelinePerimeter;whiteSpace=wrap;html=1;container=1;collapsible=0;recursiveResize=0;verticalAlign=top;spacingTop=36;outlineConnect=0;labelBackgroundColor=default;fontColor=#FFFFFF;" parent="4tAnN8jbqSkkGbERE4eA-1" vertex="1">
                    <mxGeometry x="207" y="50" width="20" height="981" as="geometry"/>
                </mxCell>
                <mxCell id="ZhGx_7sAbn-ji2-krsBM-0" value="Put/ Candidate Added" style="html=1;verticalAlign=bottom;startArrow=oval;startFill=1;endArrow=block;startSize=8;fontColor=#FFFFFF;strokeColor=#FFFFFF;strokeWidth=2;" parent="W0tWSwDXoUZTlSm5Tcsa-0" edge="1">
                    <mxGeometry width="60" relative="1" as="geometry">
                        <mxPoint x="12" y="170" as="sourcePoint"/>
                        <mxPoint x="173" y="170" as="targetPoint"/>
                    </mxGeometry>
                </mxCell>
                <mxCell id="ZhGx_7sAbn-ji2-krsBM-28" value="Offer Sent" style="html=1;verticalAlign=bottom;startArrow=oval;startFill=1;endArrow=block;startSize=8;fontColor=#FFFFFF;strokeColor=#FFFFFF;strokeWidth=2;" parent="W0tWSwDXoUZTlSm5Tcsa-0" target="ciz800winpQHYa7LlWTX-0" edge="1">
                    <mxGeometry width="60" relative="1" as="geometry">
                        <mxPoint x="11" y="749" as="sourcePoint"/>
                        <mxPoint x="232" y="749" as="targetPoint"/>
                    </mxGeometry>
                </mxCell>
                <mxCell id="ZhGx_7sAbn-ji2-krsBM-32" value="Offer Email" style="html=1;verticalAlign=bottom;startArrow=oval;startFill=1;endArrow=block;startSize=8;fontColor=#FFFFFF;strokeColor=#FFFFFF;strokeWidth=2;" parent="W0tWSwDXoUZTlSm5Tcsa-0" edge="1">
                    <mxGeometry width="60" relative="1" as="geometry">
                        <mxPoint x="11" y="732" as="sourcePoint"/>
                        <mxPoint x="-88.83333333333337" y="732" as="targetPoint"/>
                    </mxGeometry>
                </mxCell>
                <mxCell id="ZhGx_7sAbn-ji2-krsBM-33" value="Offer Accepted" style="html=1;verticalAlign=bottom;startArrow=oval;startFill=1;endArrow=block;startSize=8;fontColor=#FFFFFF;strokeColor=#FFFFFF;strokeWidth=2;" parent="W0tWSwDXoUZTlSm5Tcsa-0" target="W0tWSwDXoUZTlSm5Tcsa-0" edge="1">
                    <mxGeometry width="60" relative="1" as="geometry">
                        <mxPoint x="-85" y="807" as="sourcePoint"/>
                        <mxPoint x="-184.83333333333326" y="807" as="targetPoint"/>
                    </mxGeometry>
                </mxCell>
                <mxCell id="ZhGx_7sAbn-ji2-krsBM-34" value="Offer Sent" style="html=1;verticalAlign=bottom;startArrow=oval;startFill=1;endArrow=block;startSize=8;fontColor=#FFFFFF;strokeColor=#FFFFFF;strokeWidth=2;" parent="W0tWSwDXoUZTlSm5Tcsa-0" target="ciz800winpQHYa7LlWTX-0" edge="1">
                    <mxGeometry width="60" relative="1" as="geometry">
                        <mxPoint x="9.810344827586277" y="852" as="sourcePoint"/>
                        <mxPoint x="173" y="852" as="targetPoint"/>
                    </mxGeometry>
                </mxCell>
                <mxCell id="ZhGx_7sAbn-ji2-krsBM-1" value="Post/ Offer Created" style="html=1;verticalAlign=bottom;startArrow=oval;startFill=1;endArrow=block;startSize=8;fontColor=#FFFFFF;strokeColor=#FFFFFF;strokeWidth=2;" parent="4tAnN8jbqSkkGbERE4eA-1" target="ciz800winpQHYa7LlWTX-0" edge="1">
                    <mxGeometry width="60" relative="1" as="geometry">
                        <mxPoint x="220" y="280" as="sourcePoint"/>
                        <mxPoint x="381" y="279.9999999999998" as="targetPoint"/>
                    </mxGeometry>
                </mxCell>
                <mxCell id="ZhGx_7sAbn-ji2-krsBM-2" value="Event/ New Offer" style="html=1;verticalAlign=bottom;startArrow=oval;startFill=1;endArrow=block;startSize=8;fontColor=#99FFFF;strokeColor=#00FFFF;strokeWidth=2;" parent="4tAnN8jbqSkkGbERE4eA-1" edge="1">
                    <mxGeometry width="60" relative="1" as="geometry">
                        <mxPoint x="519.810344827586" y="297.5" as="sourcePoint"/>
                        <mxPoint x="660.5" y="297.5" as="targetPoint"/>
                    </mxGeometry>
                </mxCell>
                <mxCell id="ZhGx_7sAbn-ji2-krsBM-3" value="Put/ Manager Offer&lt;br&gt;Approval&lt;br&gt;Requested" style="html=1;verticalAlign=bottom;startArrow=oval;startFill=1;endArrow=block;startSize=8;fontColor=#FFFFFF;strokeColor=#FFFFFF;strokeWidth=2;" parent="4tAnN8jbqSkkGbERE4eA-1" edge="1">
                    <mxGeometry width="60" relative="1" as="geometry">
                        <mxPoint x="660.5" y="376" as="sourcePoint"/>
                        <mxPoint x="520" y="376" as="targetPoint"/>
                    </mxGeometry>
                </mxCell>
                <mxCell id="ZhGx_7sAbn-ji2-krsBM-4" value="Event/ New Offer" style="html=1;verticalAlign=bottom;startArrow=oval;startFill=1;endArrow=block;startSize=8;fontColor=#99FFFF;strokeColor=#00FFFF;strokeWidth=2;" parent="4tAnN8jbqSkkGbERE4eA-1" target="ciz800winpQHYa7LlWTX-16" edge="1">
                    <mxGeometry width="60" relative="1" as="geometry">
                        <mxPoint x="520" y="308" as="sourcePoint"/>
                        <mxPoint x="670.5" y="307.5" as="targetPoint"/>
                    </mxGeometry>
                </mxCell>
                <mxCell id="0UCT8Ae4GgYwAfF_IYtt-1" value="Message/&lt;br&gt;Competition Created" style="html=1;verticalAlign=bottom;startArrow=oval;startFill=1;endArrow=block;startSize=8;fontColor=#FFFFFF;strokeColor=#2D7600;strokeWidth=2;fillColor=#60a917;" parent="4tAnN8jbqSkkGbERE4eA-1" edge="1">
                    <mxGeometry width="60" relative="1" as="geometry">
                        <mxPoint x="660" y="355" as="sourcePoint"/>
                        <mxPoint x="790" y="355" as="targetPoint"/>
                    </mxGeometry>
                </mxCell>
                <mxCell id="ZhGx_7sAbn-ji2-krsBM-8" value="Event/&lt;br&gt;Manager Offer&lt;br&gt;Approval&lt;br&gt;Requested" style="html=1;verticalAlign=bottom;startArrow=oval;startFill=1;endArrow=block;startSize=8;fontColor=#99FFFF;strokeColor=#00FFFF;strokeWidth=2;" parent="4tAnN8jbqSkkGbERE4eA-1" edge="1">
                    <mxGeometry width="60" relative="1" as="geometry">
                        <mxPoint x="520" y="392.0000000000001" as="sourcePoint"/>
                        <mxPoint x="378.81034482758605" y="392.0000000000001" as="targetPoint"/>
                    </mxGeometry>
                </mxCell>
                <mxCell id="ZhGx_7sAbn-ji2-krsBM-9" value="Approval" style="html=1;verticalAlign=bottom;startArrow=oval;startFill=1;endArrow=block;startSize=8;fontColor=#FFFFFF;strokeColor=#2D7600;strokeWidth=2;fillColor=#60a917;" parent="4tAnN8jbqSkkGbERE4eA-1" target="ciz800winpQHYa7LlWTX-10" edge="1">
                    <mxGeometry width="60" relative="1" as="geometry">
                        <mxPoint x="784" y="439" as="sourcePoint"/>
                        <mxPoint x="914" y="439" as="targetPoint"/>
                    </mxGeometry>
                </mxCell>
                <mxCell id="ZhGx_7sAbn-ji2-krsBM-11" value="Offer Doc Creator (LApp)" style="shape=umlLifeline;perimeter=lifelinePerimeter;whiteSpace=wrap;html=1;container=1;collapsible=0;recursiveResize=0;outlineConnect=0;" parent="4tAnN8jbqSkkGbERE4eA-1" vertex="1">
                    <mxGeometry x="881" y="51" width="100" height="989" as="geometry"/>
                </mxCell>
                <mxCell id="ZhGx_7sAbn-ji2-krsBM-16" value="Event/ &lt;br&gt;Manager Sign Off" style="html=1;verticalAlign=bottom;startArrow=oval;startFill=1;endArrow=block;startSize=8;fontColor=#99FFFF;strokeColor=#00FFFF;strokeWidth=2;" parent="4tAnN8jbqSkkGbERE4eA-1" edge="1">
                    <mxGeometry width="60" relative="1" as="geometry">
                        <mxPoint x="519" y="470" as="sourcePoint"/>
                        <mxPoint x="377.92857142857133" y="470" as="targetPoint"/>
                    </mxGeometry>
                </mxCell>
                <mxCell id="ZhGx_7sAbn-ji2-krsBM-17" value="Event/ &lt;br&gt;Offer Doc Needed" style="html=1;verticalAlign=bottom;startArrow=oval;startFill=1;endArrow=block;startSize=8;fontColor=#99FFFF;strokeColor=#00FFFF;strokeWidth=2;" parent="4tAnN8jbqSkkGbERE4eA-1" edge="1">
                    <mxGeometry width="60" relative="1" as="geometry">
                        <mxPoint x="519" y="528" as="sourcePoint"/>
                        <mxPoint x="377.92857142857133" y="528" as="targetPoint"/>
                    </mxGeometry>
                </mxCell>
                <mxCell id="ZhGx_7sAbn-ji2-krsBM-18" value="Event/ &lt;br&gt;Offer Doc Needed" style="html=1;verticalAlign=bottom;startArrow=oval;startFill=1;endArrow=block;startSize=8;fontColor=#99FFFF;strokeColor=#00FFFF;strokeWidth=2;" parent="4tAnN8jbqSkkGbERE4eA-1" edge="1">
                    <mxGeometry width="60" relative="1" as="geometry">
                        <mxPoint x="519" y="548" as="sourcePoint"/>
                        <mxPoint x="930.5" y="548" as="targetPoint"/>
                    </mxGeometry>
                </mxCell>
                <mxCell id="ZhGx_7sAbn-ji2-krsBM-20" value="" style="html=1;verticalLabelPosition=bottom;align=center;labelBackgroundColor=#ffffff;verticalAlign=top;strokeWidth=2;strokeColor=#0080F0;shadow=0;dashed=0;shape=mxgraph.ios7.icons.document;fontColor=#FFFFFF;" parent="4tAnN8jbqSkkGbERE4eA-1" vertex="1">
                    <mxGeometry x="993" y="550" width="14" height="20" as="geometry"/>
                </mxCell>
                <mxCell id="ZhGx_7sAbn-ji2-krsBM-21" value="Offer Template" style="html=1;verticalAlign=bottom;startArrow=oval;startFill=1;endArrow=block;startSize=8;fontColor=#FFFFFF;strokeColor=#3399FF;strokeWidth=2;fillColor=#60a917;" parent="4tAnN8jbqSkkGbERE4eA-1" edge="1">
                    <mxGeometry width="60" relative="1" as="geometry">
                        <mxPoint x="1064.4999999999998" y="594" as="sourcePoint"/>
                        <mxPoint x="936" y="594" as="targetPoint"/>
                    </mxGeometry>
                </mxCell>
                <mxCell id="ZhGx_7sAbn-ji2-krsBM-22" value="Offer Template" style="html=1;verticalAlign=bottom;startArrow=oval;startFill=1;endArrow=block;startSize=8;fontColor=#FFFFFF;strokeColor=#3399FF;strokeWidth=2;fillColor=#60a917;" parent="4tAnN8jbqSkkGbERE4eA-1" edge="1">
                    <mxGeometry width="60" relative="1" as="geometry">
                        <mxPoint x="936" y="655" as="sourcePoint"/>
                        <mxPoint x="1064.5" y="655" as="targetPoint"/>
                    </mxGeometry>
                </mxCell>
                <mxCell id="ZhGx_7sAbn-ji2-krsBM-23" value="" style="html=1;verticalLabelPosition=bottom;align=center;labelBackgroundColor=#ffffff;verticalAlign=top;strokeWidth=2;strokeColor=#0080F0;shadow=0;dashed=0;shape=mxgraph.ios7.icons.document;fontColor=#FFFFFF;" parent="4tAnN8jbqSkkGbERE4eA-1" vertex="1">
                    <mxGeometry x="993" y="610" width="14" height="20" as="geometry"/>
                </mxCell>
                <mxCell id="ZhGx_7sAbn-ji2-krsBM-24" value="Event/ &lt;br&gt;Doc Added" style="html=1;verticalAlign=bottom;startArrow=oval;startFill=1;endArrow=block;startSize=8;fontColor=#99FFFF;strokeColor=#00FFFF;strokeWidth=2;" parent="4tAnN8jbqSkkGbERE4eA-1" edge="1">
                    <mxGeometry width="60" relative="1" as="geometry">
                        <mxPoint x="1064.5" y="711" as="sourcePoint"/>
                        <mxPoint x="519.810344827586" y="711" as="targetPoint"/>
                    </mxGeometry>
                </mxCell>
                <mxCell id="ZhGx_7sAbn-ji2-krsBM-26" value="Event/ &lt;br&gt;Offer Doc &lt;br&gt;Created" style="html=1;verticalAlign=bottom;startArrow=oval;startFill=1;endArrow=block;startSize=8;fontColor=#99FFFF;strokeColor=#00FFFF;strokeWidth=2;" parent="4tAnN8jbqSkkGbERE4eA-1" target="ciz800winpQHYa7LlWTX-16" edge="1">
                    <mxGeometry width="60" relative="1" as="geometry">
                        <mxPoint x="519.5" y="743" as="sourcePoint"/>
                        <mxPoint x="387.92857142857133" y="743" as="targetPoint"/>
                    </mxGeometry>
                </mxCell>
                <mxCell id="ZhGx_7sAbn-ji2-krsBM-30" value="Event/ &lt;br&gt;Offer Sent" style="html=1;verticalAlign=bottom;startArrow=oval;startFill=1;endArrow=block;startSize=8;fontColor=#99FFFF;strokeColor=#00FFFF;strokeWidth=2;" parent="4tAnN8jbqSkkGbERE4eA-1" edge="1">
                    <mxGeometry width="60" relative="1" as="geometry">
                        <mxPoint x="517.5" y="851" as="sourcePoint"/>
                        <mxPoint x="376.32352941176464" y="851" as="targetPoint"/>
                    </mxGeometry>
                </mxCell>
                <mxCell id="ZhGx_7sAbn-ji2-krsBM-31" value="Candidate" style="shape=umlLifeline;participant=umlActor;perimeter=lifelinePerimeter;whiteSpace=wrap;html=1;container=1;collapsible=0;recursiveResize=0;verticalAlign=top;spacingTop=36;outlineConnect=0;labelBackgroundColor=default;fontColor=#99FFFF;" parent="4tAnN8jbqSkkGbERE4eA-1" vertex="1">
                    <mxGeometry x="110" y="48.5" width="20" height="991.5" as="geometry"/>
                </mxCell>
                <mxCell id="ZhGx_7sAbn-ji2-krsBM-36" value="Event/ &lt;br&gt;Offer Accepted" style="html=1;verticalAlign=bottom;startArrow=oval;startFill=1;endArrow=block;startSize=8;fontColor=#99FFFF;strokeColor=#00FFFF;strokeWidth=2;" parent="4tAnN8jbqSkkGbERE4eA-1" edge="1">
                    <mxGeometry width="60" relative="1" as="geometry">
                        <mxPoint x="517.5" y="957.9999999999998" as="sourcePoint"/>
                        <mxPoint x="376.32352941176464" y="957.9999999999998" as="targetPoint"/>
                    </mxGeometry>
                </mxCell>
                <mxCell id="ZhGx_7sAbn-ji2-krsBM-38" value="Post/ Create Competition" style="html=1;verticalAlign=bottom;startArrow=oval;startFill=1;endArrow=block;startSize=8;fontColor=#FFFFFF;strokeColor=#FFFFFF;strokeWidth=2;" parent="4tAnN8jbqSkkGbERE4eA-1" edge="1">
                    <mxGeometry width="60" relative="1" as="geometry">
                        <mxPoint x="220" y="160" as="sourcePoint"/>
                        <mxPoint x="381" y="160" as="targetPoint"/>
                    </mxGeometry>
                </mxCell>
            </root>
        </mxGraphModel>
    </diagram>
    <diagram id="MOoCUTmpz61Id_W1DL8F" name="Offer Flow">
        <mxGraphModel dx="1138" dy="687" grid="0" gridSize="10" guides="1" tooltips="1" connect="1" arrows="1" fold="1" page="1" pageScale="1" pageWidth="2000" pageHeight="1200" math="0" shadow="0">
            <root>
                <mxCell id="0"/>
                <mxCell id="1" parent="0"/>
                <mxCell id="fUj960GtrLUGJUcF94el-3" value="OfferService" style="shape=umlLifeline;perimeter=lifelinePerimeter;whiteSpace=wrap;html=1;container=1;collapsible=0;recursiveResize=0;outlineConnect=0;" parent="1" vertex="1">
                    <mxGeometry x="705" y="72" width="100" height="963" as="geometry"/>
                </mxCell>
                <mxCell id="fUj960GtrLUGJUcF94el-8" value="Store OfferDto" style="edgeStyle=orthogonalEdgeStyle;html=1;align=left;spacingLeft=2;endArrow=block;rounded=0;entryX=1;entryY=0;" parent="fUj960GtrLUGJUcF94el-3" edge="1">
                    <mxGeometry relative="1" as="geometry">
                        <mxPoint x="50" y="109" as="sourcePoint"/>
                        <Array as="points">
                            <mxPoint x="80" y="109"/>
                        </Array>
                        <mxPoint x="55" y="129" as="targetPoint"/>
                    </mxGeometry>
                </mxCell>
                <mxCell id="fUj960GtrLUGJUcF94el-36" value="Update Offer State" style="edgeStyle=orthogonalEdgeStyle;html=1;align=left;spacingLeft=2;endArrow=block;rounded=0;" parent="fUj960GtrLUGJUcF94el-3" edge="1">
                    <mxGeometry relative="1" as="geometry">
                        <mxPoint x="55" y="300" as="sourcePoint"/>
                        <Array as="points">
                            <mxPoint x="76" y="300"/>
                            <mxPoint x="76" y="329"/>
                        </Array>
                        <mxPoint x="55" y="329.03999999999996" as="targetPoint"/>
                    </mxGeometry>
                </mxCell>
                <mxCell id="fUj960GtrLUGJUcF94el-38" value="" style="html=1;points=[];perimeter=orthogonalPerimeter;labelBackgroundColor=default;fontColor=#FFFFFF;" parent="fUj960GtrLUGJUcF94el-3" vertex="1">
                    <mxGeometry x="45" y="257" width="10" height="90" as="geometry"/>
                </mxCell>
                <mxCell id="fUj960GtrLUGJUcF94el-37" value="Update Offer State" style="edgeStyle=orthogonalEdgeStyle;html=1;align=left;spacingLeft=2;endArrow=block;rounded=0;" parent="fUj960GtrLUGJUcF94el-3" edge="1">
                    <mxGeometry relative="1" as="geometry">
                        <mxPoint x="55" y="411" as="sourcePoint"/>
                        <Array as="points">
                            <mxPoint x="76" y="411"/>
                            <mxPoint x="76" y="440"/>
                        </Array>
                        <mxPoint x="55" y="440.03999999999996" as="targetPoint"/>
                    </mxGeometry>
                </mxCell>
                <mxCell id="fUj960GtrLUGJUcF94el-39" value="" style="html=1;points=[];perimeter=orthogonalPerimeter;labelBackgroundColor=default;fontColor=#FFFFFF;" parent="fUj960GtrLUGJUcF94el-3" vertex="1">
                    <mxGeometry x="45" y="93" width="10" height="87" as="geometry"/>
                </mxCell>
                <mxCell id="fUj960GtrLUGJUcF94el-40" value="" style="html=1;points=[];perimeter=orthogonalPerimeter;labelBackgroundColor=default;fontColor=#FFFFFF;" parent="fUj960GtrLUGJUcF94el-3" vertex="1">
                    <mxGeometry x="45" y="384" width="10" height="135" as="geometry"/>
                </mxCell>
                <mxCell id="fUj960GtrLUGJUcF94el-41" value="OfferUpdated" style="html=1;verticalAlign=bottom;startArrow=oval;startFill=1;endArrow=block;startSize=8;fontColor=#99FFFF;strokeColor=#00FFFF;strokeWidth=2;exitX=0.072;exitY=0.806;exitDx=0;exitDy=0;exitPerimeter=0;" parent="fUj960GtrLUGJUcF94el-3" target="fUj960GtrLUGJUcF94el-21" edge="1">
                    <mxGeometry width="60" relative="1" as="geometry">
                        <mxPoint x="45" y="486.99999999999994" as="sourcePoint"/>
                        <mxPoint x="-204.33333333333326" y="487" as="targetPoint"/>
                    </mxGeometry>
                </mxCell>
                <mxCell id="fUj960GtrLUGJUcF94el-60" value="Update Offer State" style="edgeStyle=orthogonalEdgeStyle;html=1;align=left;spacingLeft=2;endArrow=block;rounded=0;" parent="fUj960GtrLUGJUcF94el-3" edge="1">
                    <mxGeometry relative="1" as="geometry">
                        <mxPoint x="55" y="730" as="sourcePoint"/>
                        <Array as="points">
                            <mxPoint x="76" y="730"/>
                            <mxPoint x="76" y="759"/>
                        </Array>
                        <mxPoint x="55" y="759.04" as="targetPoint"/>
                    </mxGeometry>
                </mxCell>
                <mxCell id="fUj960GtrLUGJUcF94el-68" value="Update Offer State" style="edgeStyle=orthogonalEdgeStyle;html=1;align=left;spacingLeft=2;endArrow=block;rounded=0;" parent="fUj960GtrLUGJUcF94el-3" edge="1">
                    <mxGeometry relative="1" as="geometry">
                        <mxPoint x="52" y="877" as="sourcePoint"/>
                        <Array as="points">
                            <mxPoint x="73" y="877"/>
                            <mxPoint x="73" y="906"/>
                        </Array>
                        <mxPoint x="52" y="906.04" as="targetPoint"/>
                    </mxGeometry>
                </mxCell>
                <mxCell id="fUj960GtrLUGJUcF94el-10" value="Offer.Created Topic" style="shape=umlLifeline;perimeter=lifelinePerimeter;whiteSpace=wrap;html=1;container=1;collapsible=0;recursiveResize=0;outlineConnect=0;fillColor=#1ba1e2;fontColor=#ffffff;strokeColor=#006EAF;" parent="1" vertex="1">
                    <mxGeometry x="238" y="71" width="100" height="967" as="geometry"/>
                </mxCell>
                <mxCell id="fUj960GtrLUGJUcF94el-14" value="OfferDTO" style="html=1;verticalAlign=bottom;startArrow=oval;startFill=1;endArrow=block;startSize=8;exitX=-0.023;exitY=0.885;exitDx=0;exitDy=0;exitPerimeter=0;" parent="1" source="fUj960GtrLUGJUcF94el-39" target="fUj960GtrLUGJUcF94el-43" edge="1">
                    <mxGeometry width="60" relative="1" as="geometry">
                        <mxPoint x="500" y="240" as="sourcePoint"/>
                        <mxPoint x="167.54761904761904" y="240" as="targetPoint"/>
                        <Array as="points">
                            <mxPoint x="320" y="240"/>
                        </Array>
                    </mxGeometry>
                </mxCell>
                <mxCell id="fUj960GtrLUGJUcF94el-16" value="Manager Signoff Workflow (LApp)" style="shape=umlLifeline;perimeter=lifelinePerimeter;whiteSpace=wrap;html=1;container=1;collapsible=0;recursiveResize=0;outlineConnect=0;" parent="1" vertex="1">
                    <mxGeometry x="866" y="71" width="100" height="959" as="geometry"/>
                </mxCell>
                <mxCell id="fUj960GtrLUGJUcF94el-28" value="Approval Request" style="html=1;verticalAlign=bottom;startArrow=oval;startFill=1;endArrow=block;startSize=8;fontColor=#FFFFFF;strokeColor=#FFFFFF;strokeWidth=1;" parent="fUj960GtrLUGJUcF94el-16" source="fUj960GtrLUGJUcF94el-32" edge="1">
                    <mxGeometry width="60" relative="1" as="geometry">
                        <mxPoint x="51" y="288" as="sourcePoint"/>
                        <mxPoint x="173.5" y="288" as="targetPoint"/>
                    </mxGeometry>
                </mxCell>
                <mxCell id="fUj960GtrLUGJUcF94el-32" value="" style="html=1;points=[];perimeter=orthogonalPerimeter;labelBackgroundColor=default;fontColor=#FFFFFF;" parent="fUj960GtrLUGJUcF94el-16" vertex="1">
                    <mxGeometry x="45" y="227" width="10" height="67" as="geometry"/>
                </mxCell>
                <mxCell id="fUj960GtrLUGJUcF94el-24" value="&lt;b&gt;Put &lt;/b&gt;/&lt;br&gt;MangerSign OffRequested" style="html=1;verticalAlign=bottom;startArrow=oval;startFill=1;endArrow=block;startSize=8;" parent="fUj960GtrLUGJUcF94el-16" target="fUj960GtrLUGJUcF94el-3" edge="1">
                    <mxGeometry width="60" relative="1" as="geometry">
                        <mxPoint x="45" y="273" as="sourcePoint"/>
                        <mxPoint x="-62" y="273" as="targetPoint"/>
                    </mxGeometry>
                </mxCell>
                <mxCell id="fUj960GtrLUGJUcF94el-34" value="" style="html=1;points=[];perimeter=orthogonalPerimeter;labelBackgroundColor=default;fontColor=#FFFFFF;" parent="fUj960GtrLUGJUcF94el-16" vertex="1">
                    <mxGeometry x="45" y="348" width="10" height="56" as="geometry"/>
                </mxCell>
                <mxCell id="fUj960GtrLUGJUcF94el-20" value="OfferCreated" style="html=1;verticalAlign=bottom;startArrow=oval;startFill=1;endArrow=block;startSize=8;strokeWidth=2;fillColor=#1ba1e2;strokeColor=#00FFFF;fontColor=#99FFFF;entryX=1.103;entryY=0.015;entryDx=0;entryDy=0;entryPerimeter=0;" parent="1" target="fUj960GtrLUGJUcF94el-32" edge="1">
                    <mxGeometry width="60" relative="1" as="geometry">
                        <mxPoint x="287.94444444444457" y="299" as="sourcePoint"/>
                        <mxPoint x="732" y="299" as="targetPoint"/>
                    </mxGeometry>
                </mxCell>
                <mxCell id="fUj960GtrLUGJUcF94el-21" value="Offer.Updated Topic" style="shape=umlLifeline;perimeter=lifelinePerimeter;whiteSpace=wrap;html=1;container=1;collapsible=0;recursiveResize=0;outlineConnect=0;fillColor=#1ba1e2;fontColor=#ffffff;strokeColor=#006EAF;" parent="1" vertex="1">
                    <mxGeometry x="349" y="71" width="100" height="963" as="geometry"/>
                </mxCell>
                <mxCell id="fUj960GtrLUGJUcF94el-22" value="Pub Sub Topics" style="shape=crossbar;whiteSpace=wrap;html=1;rounded=1;fontColor=#99FFFF;labelBackgroundColor=default;verticalAlign=middle;" parent="1" vertex="1">
                    <mxGeometry x="234" y="39" width="443" height="20" as="geometry"/>
                </mxCell>
                <mxCell id="fUj960GtrLUGJUcF94el-27" value="Manager" style="shape=umlLifeline;participant=umlActor;perimeter=lifelinePerimeter;whiteSpace=wrap;html=1;container=1;collapsible=0;recursiveResize=0;verticalAlign=top;spacingTop=36;outlineConnect=0;labelBackgroundColor=default;fontColor=#99FFFF;" parent="1" vertex="1">
                    <mxGeometry x="1030" y="69" width="20" height="964" as="geometry"/>
                </mxCell>
                <mxCell id="fUj960GtrLUGJUcF94el-30" value="&lt;b&gt;Put &lt;/b&gt;/MangerSignOff" style="html=1;verticalAlign=bottom;startArrow=oval;startFill=1;endArrow=block;startSize=8;entryX=1.1;entryY=0.078;entryDx=0;entryDy=0;entryPerimeter=0;" parent="1" edge="1">
                    <mxGeometry width="60" relative="1" as="geometry">
                        <mxPoint x="915.5" y="462" as="sourcePoint"/>
                        <mxPoint x="760.9999999999995" y="462.2539999999999" as="targetPoint"/>
                    </mxGeometry>
                </mxCell>
                <mxCell id="fUj960GtrLUGJUcF94el-31" value="Approval" style="html=1;verticalAlign=bottom;startArrow=oval;startFill=1;endArrow=block;startSize=8;fontColor=#FFFFFF;strokeColor=#FFFFFF;strokeWidth=1;" parent="1" edge="1">
                    <mxGeometry width="60" relative="1" as="geometry">
                        <mxPoint x="1040" y="429" as="sourcePoint"/>
                        <mxPoint x="915.810344827586" y="428.9999999999999" as="targetPoint"/>
                    </mxGeometry>
                </mxCell>
                <mxCell id="fUj960GtrLUGJUcF94el-13" value="OfferCreated" style="html=1;verticalAlign=bottom;startArrow=oval;startFill=1;endArrow=block;startSize=8;strokeWidth=2;fillColor=#1ba1e2;strokeColor=#00FFFF;fontColor=#99FFFF;exitX=-0.155;exitY=0.527;exitDx=0;exitDy=0;exitPerimeter=0;" parent="1" source="fUj960GtrLUGJUcF94el-39" edge="1">
                    <mxGeometry width="60" relative="1" as="geometry">
                        <mxPoint x="566.5100000000002" y="208.34000000000003" as="sourcePoint"/>
                        <mxPoint x="287.6666666666665" y="208.34000000000003" as="targetPoint"/>
                    </mxGeometry>
                </mxCell>
                <mxCell id="fUj960GtrLUGJUcF94el-43" value="HR" style="shape=umlLifeline;participant=umlActor;perimeter=lifelinePerimeter;whiteSpace=wrap;html=1;container=1;collapsible=0;recursiveResize=0;verticalAlign=top;spacingTop=36;outlineConnect=0;labelBackgroundColor=default;fontColor=#FFFFFF;" parent="1" vertex="1">
                    <mxGeometry x="148" y="55" width="20" height="981" as="geometry"/>
                </mxCell>
                <mxCell id="fUj960GtrLUGJUcF94el-4" value="&lt;b&gt;Post&lt;/b&gt; / (create offer)" style="html=1;verticalAlign=bottom;startArrow=oval;startFill=1;endArrow=block;startSize=8;entryX=-0.085;entryY=0.279;entryDx=0;entryDy=0;entryPerimeter=0;" parent="1" edge="1">
                    <mxGeometry width="60" relative="1" as="geometry">
                        <mxPoint x="157.66666666666652" y="175.27300000000002" as="sourcePoint"/>
                        <mxPoint x="749.1500000000001" y="175.27300000000002" as="targetPoint"/>
                    </mxGeometry>
                </mxCell>
                <mxCell id="fUj960GtrLUGJUcF94el-23" value="OfferUpdated" style="html=1;verticalAlign=bottom;startArrow=oval;startFill=1;endArrow=block;startSize=8;fontColor=#99FFFF;strokeColor=#00FFFF;strokeWidth=2;exitX=0.072;exitY=0.806;exitDx=0;exitDy=0;exitPerimeter=0;" parent="1" source="fUj960GtrLUGJUcF94el-38" target="fUj960GtrLUGJUcF94el-21" edge="1">
                    <mxGeometry width="60" relative="1" as="geometry">
                        <mxPoint x="598" y="403" as="sourcePoint"/>
                        <mxPoint x="480.70000000000005" y="403" as="targetPoint"/>
                    </mxGeometry>
                </mxCell>
                <mxCell id="fUj960GtrLUGJUcF94el-44" value="Offer.&lt;br&gt;OfferDocNeeded" style="shape=umlLifeline;perimeter=lifelinePerimeter;whiteSpace=wrap;html=1;container=1;collapsible=0;recursiveResize=0;outlineConnect=0;fillColor=#1ba1e2;fontColor=#ffffff;strokeColor=#006EAF;" parent="1" vertex="1">
                    <mxGeometry x="463" y="72" width="100" height="963" as="geometry"/>
                </mxCell>
                <mxCell id="fUj960GtrLUGJUcF94el-45" value="OfferDocumentNeeded" style="html=1;verticalAlign=bottom;startArrow=oval;startFill=1;endArrow=block;startSize=8;fontColor=#99FFFF;strokeColor=#00FFFF;strokeWidth=2;exitX=-0.163;exitY=0.884;exitDx=0;exitDy=0;exitPerimeter=0;" parent="1" source="fUj960GtrLUGJUcF94el-40" target="fUj960GtrLUGJUcF94el-44" edge="1">
                    <mxGeometry width="60" relative="1" as="geometry">
                        <mxPoint x="1261" y="621" as="sourcePoint"/>
                        <mxPoint x="1011.6666666666667" y="621" as="targetPoint"/>
                    </mxGeometry>
                </mxCell>
                <mxCell id="fUj960GtrLUGJUcF94el-46" value="Offer Docuement Creator (LApp)" style="shape=umlLifeline;perimeter=lifelinePerimeter;whiteSpace=wrap;html=1;container=1;collapsible=0;recursiveResize=0;outlineConnect=0;" parent="1" vertex="1">
                    <mxGeometry x="1134" y="69" width="100" height="959" as="geometry"/>
                </mxCell>
                <mxCell id="fUj960GtrLUGJUcF94el-50" value="" style="html=1;points=[];perimeter=orthogonalPerimeter;labelBackgroundColor=default;fontColor=#FFFFFF;" parent="fUj960GtrLUGJUcF94el-46" vertex="1">
                    <mxGeometry x="49" y="563" width="10" height="56" as="geometry"/>
                </mxCell>
                <mxCell id="fUj960GtrLUGJUcF94el-49" value="&lt;b&gt;File Saved&lt;/b&gt;" style="html=1;verticalAlign=bottom;startArrow=oval;startFill=1;endArrow=block;startSize=8;exitX=0.984;exitY=0.527;exitDx=0;exitDy=0;exitPerimeter=0;" parent="1" edge="1">
                    <mxGeometry width="60" relative="1" as="geometry">
                        <mxPoint x="1192.8400000000001" y="676.512" as="sourcePoint"/>
                        <mxPoint x="1332.5" y="676.512" as="targetPoint"/>
                    </mxGeometry>
                </mxCell>
                <mxCell id="fUj960GtrLUGJUcF94el-51" value="OfferDocumentNeeded" style="html=1;verticalAlign=bottom;startArrow=oval;startFill=1;endArrow=block;startSize=8;fontColor=#99FFFF;strokeColor=#00FFFF;strokeWidth=2;entryX=0.7;entryY=0.107;entryDx=0;entryDy=0;entryPerimeter=0;" parent="1" target="fUj960GtrLUGJUcF94el-50" edge="1">
                    <mxGeometry width="60" relative="1" as="geometry">
                        <mxPoint x="510.071428571428" y="638.0000000000002" as="sourcePoint"/>
                        <mxPoint x="1083" y="638" as="targetPoint"/>
                    </mxGeometry>
                </mxCell>
                <mxCell id="fUj960GtrLUGJUcF94el-53" value="" style="shape=umlLifeline;perimeter=lifelinePerimeter;whiteSpace=wrap;html=1;container=1;collapsible=0;recursiveResize=0;outlineConnect=0;labelBackgroundColor=default;fontColor=#FFFFFF;" parent="1" vertex="1">
                    <mxGeometry x="1283" y="69" width="100" height="966" as="geometry"/>
                </mxCell>
                <mxCell id="fUj960GtrLUGJUcF94el-54" value="" style="dashed=0;outlineConnect=0;html=1;align=center;labelPosition=center;verticalLabelPosition=bottom;verticalAlign=top;shape=mxgraph.weblogos.onedrive;fillColor=#094AB1;strokeColor=none;labelBackgroundColor=default;fontColor=#FFFFFF;" parent="fUj960GtrLUGJUcF94el-53" vertex="1">
                    <mxGeometry x="22.8" y="3" width="54.39" height="33" as="geometry"/>
                </mxCell>
                <mxCell id="fUj960GtrLUGJUcF94el-56" value="Documents. OfferDocsUpdated" style="shape=umlLifeline;perimeter=lifelinePerimeter;whiteSpace=wrap;html=1;container=1;collapsible=0;recursiveResize=0;outlineConnect=0;fillColor=#1ba1e2;fontColor=#ffffff;strokeColor=#006EAF;" parent="1" vertex="1">
                    <mxGeometry x="576" y="71.5" width="100" height="963" as="geometry"/>
                </mxCell>
                <mxCell id="fUj960GtrLUGJUcF94el-55" value="Offer Docuements Changed" style="html=1;verticalAlign=bottom;startArrow=oval;startFill=1;endArrow=block;startSize=8;fontColor=#99FFFF;strokeColor=#00FFFF;strokeWidth=2;" parent="1" edge="1">
                    <mxGeometry width="60" relative="1" as="geometry">
                        <mxPoint x="1332.5" y="744.9999999999998" as="sourcePoint"/>
                        <mxPoint x="625.071428571428" y="744.9999999999998" as="targetPoint"/>
                    </mxGeometry>
                </mxCell>
                <mxCell id="fUj960GtrLUGJUcF94el-59" value="" style="html=1;points=[];perimeter=orthogonalPerimeter;labelBackgroundColor=default;fontColor=#FFFFFF;" parent="1" vertex="1">
                    <mxGeometry x="750" y="778" width="10" height="90" as="geometry"/>
                </mxCell>
                <mxCell id="fUj960GtrLUGJUcF94el-61" value="Offer Docuements Changed" style="html=1;verticalAlign=bottom;startArrow=oval;startFill=1;endArrow=block;startSize=8;fontColor=#99FFFF;strokeColor=#00FFFF;strokeWidth=2;" parent="1" source="fUj960GtrLUGJUcF94el-56" target="fUj960GtrLUGJUcF94el-59" edge="1">
                    <mxGeometry width="60" relative="1" as="geometry">
                        <mxPoint x="625" y="777" as="sourcePoint"/>
                        <mxPoint x="635.071428571428" y="754.9999999999998" as="targetPoint"/>
                    </mxGeometry>
                </mxCell>
                <mxCell id="fUj960GtrLUGJUcF94el-62" value="Offer.Updated" style="html=1;verticalAlign=bottom;startArrow=oval;startFill=1;endArrow=block;startSize=8;fontColor=#99FFFF;strokeColor=#00FFFF;strokeWidth=2;exitX=-0.085;exitY=0.889;exitDx=0;exitDy=0;exitPerimeter=0;" parent="1" source="fUj960GtrLUGJUcF94el-59" target="fUj960GtrLUGJUcF94el-21" edge="1">
                    <mxGeometry width="60" relative="1" as="geometry">
                        <mxPoint x="750" y="856" as="sourcePoint"/>
                        <mxPoint x="398.66666666666674" y="856" as="targetPoint"/>
                    </mxGeometry>
                </mxCell>
                <mxCell id="fUj960GtrLUGJUcF94el-64" value="" style="html=1;points=[];perimeter=orthogonalPerimeter;labelBackgroundColor=default;fontColor=#FFFFFF;" parent="1" vertex="1">
                    <mxGeometry x="748.68" y="926.94" width="10" height="87" as="geometry"/>
                </mxCell>
                <mxCell id="fUj960GtrLUGJUcF94el-66" value="Offer.Updated" style="html=1;verticalAlign=bottom;startArrow=oval;startFill=1;endArrow=block;startSize=8;strokeWidth=2;fillColor=#1ba1e2;strokeColor=#00FFFF;fontColor=#99FFFF;exitX=-0.155;exitY=0.527;exitDx=0;exitDy=0;exitPerimeter=0;" parent="1" edge="1">
                    <mxGeometry width="60" relative="1" as="geometry">
                        <mxPoint x="747.1299999999997" y="1002.789" as="sourcePoint"/>
                        <mxPoint x="398.32352941176487" y="1002.789" as="targetPoint"/>
                    </mxGeometry>
                </mxCell>
                <mxCell id="fUj960GtrLUGJUcF94el-67" value="&lt;b&gt;Put &lt;/b&gt;/offerSent&amp;nbsp;" style="html=1;verticalAlign=bottom;startArrow=oval;startFill=1;endArrow=block;startSize=8;entryX=-0.085;entryY=0.279;entryDx=0;entryDy=0;entryPerimeter=0;" parent="1" edge="1">
                    <mxGeometry width="60" relative="1" as="geometry">
                        <mxPoint x="156.34666666666652" y="937.2130000000002" as="sourcePoint"/>
                        <mxPoint x="747.8300000000005" y="937.2130000000002" as="targetPoint"/>
                    </mxGeometry>
                </mxCell>
            </root>
        </mxGraphModel>
    </diagram>
</mxfile>